<?xml version="1.0" standalone="no"?><!DOCTYPE svg PUBLIC "-//W3C//DTD SVG 1.1//EN" "http://www.w3.org/Graphics/SVG/1.1/DTD/svg11.dtd"><svg t="1535941538741" class="icon" style="" viewBox="0 0 1024 1024" version="1.1" xmlns="http://www.w3.org/2000/svg" p-id="5009" xmlns:xlink="http://www.w3.org/1999/xlink" width="200" height="200"><defs><style type="text/css"></style></defs>
<path d="M849.45 1018.167H174.559c-92.796 0-168.726-75.926-168.726-168.72V174.559c0-92.796 75.929-168.726 168.726-168.726H849.45c92.793 0 168.717 75.929 168.717 168.726v674.888c0 92.793-75.924 168.72-168.717 168.72z m128.358-843.608c0-46.403-37.962-128.358-128.358-128.358H174.559c-46.4 0-128.358 37.956-128.358 128.358v674.888c0 46.397 37.959 128.361 128.358 128.361H849.45c46.397 0 128.358-37.965 128.358-128.361V174.559z" fill="#0F0F0F" p-id="2682"></path>
<path d="M64.58 154.24400001l924.488 631.289-19.736 28.903-924.488-631.29z" fill="" p-id="645"></path><path d="M969.374 154.24500001l19.737 28.903-924.488 631.29-19.736-28.904z" fill="" p-id="646"></path>
<path d="M80.888889 728.177778V238.933333h233.244444c51.2 0 91.022222 17.066667 119.466667 45.511111 22.755556 22.755556 28.444444 51.2 28.444444 79.644445 0 28.444444-5.688889 56.888889-22.755555 73.955555-5.688889 5.688889-17.066667 17.066667-34.133333 22.755556 28.444444 11.377778 45.511111 28.444444 56.888888 51.2 11.377778 17.066667 17.066667 39.822222 17.066667 68.266667 0 17.066667-5.688889 39.822222-11.377778 56.888889-5.688889 17.066667-17.066667 34.133333-34.133333 45.511111-17.066667 17.066667-34.133333 28.444444-51.2 34.133333-22.755556 5.688889-56.888889 11.377778-102.4 11.377778H56.888889z m91.022222-403.911111v108.088889h119.466667c22.755556 0 39.822222-5.688889 51.2-11.377778 17.066667-17.066667 22.755556-28.444444 22.755555-45.511111 0-22.755556-5.688889-34.133333-17.066666-39.822223s-34.133333-11.377778-56.888889-11.377777H147.911111z m0 187.733333v130.844444h125.155556c22.755556 0 45.511111-5.688889 56.888889-17.066666s22.755556-28.444444 22.755555-56.888889c0-22.755556-5.688889-34.133333-22.755555-45.511111-11.377778-5.688889-28.444444-11.377778-51.2-11.377778H147.911111z
	M738.311111 546.133333V460.8H943.111111v261.688889h-68.266667l-11.377777-62.577778c-17.066667 22.755556-39.822222 39.822222-51.2 51.2-28.444444 17.066667-62.577778 28.444444-102.4 28.444445-62.577778 0-113.777778-22.755556-159.288889-62.577778-39.822222-45.511111-62.577778-113.777778-62.577778-193.422222 0-73.955556 17.066667-130.844444 56.888889-182.044445 45.511111-51.2 102.4-79.644444 182.044444-79.644444 68.266667 0 125.155556 17.066667 164.977778 56.888889 34.133333 34.133333 51.2 68.266667 51.2 108.088888h-102.4c0-11.377778-11.377778-28.444444-28.444444-45.511111-22.755556-22.755556-51.2-34.133333-79.644445-34.133333-39.822222 0-73.955556 11.377778-96.711111 39.822222-28.444444 34.133333-45.511111 73.955556-45.511111 136.533334 0 62.577778 17.066667 108.088889 45.511111 136.533333 22.755556 22.755556 56.888889 34.133333 96.711111 34.133333 22.755556 0 39.822222-5.688889 56.888889-17.066666 28.444444-17.066667 51.2-51.2 56.888889-91.022223h-108.088889z" fill="" p-id="4133"></path>

</svg>